<svg id="Layer_1" data-name="Layer 1" xmlns="http://www.w3.org/2000/svg" viewBox="0 0 80 80"><defs><style>.cls-1{fill:#07ad76;}</style></defs><path class="cls-1" d="M80.18,57.64V40a.93.93,0,0,0-.23-.65h0l-8.28-9A4.13,4.13,0,0,0,68.62,29H53.79a.91.91,0,0,0-.92.91V45.25H50V24.35a5.77,5.77,0,0,0-5.78-5.77H5.93A5.74,5.74,0,0,0,.18,24.33V60.85a1,1,0,0,0,1,.95H7.52a6.59,6.59,0,0,0,13,0H59.89a6.59,6.59,0,0,0,13,0h3.13a4.13,4.13,0,0,0,4.13-4.14Zm-40-37.13h4a3.84,3.84,0,0,1,3.85,3.84h0v20.9H40.18Zm-9.64,0h7.71V45.25H30.54Zm-9.64,0h7.72V45.25H20.9Zm-9.63,0H19V45.25H11.27ZM2.11,24.35a3.82,3.82,0,0,1,3.78-3.84H9.34V45.25H2.11ZM14,65.51a4.66,4.66,0,1,1,4.66-4.66A4.66,4.66,0,0,1,14,65.51ZM52.87,50.87H44a1,1,0,1,0,0,1.93h8.83v7.07H20.55a6.59,6.59,0,0,0-13,0H2.11V52.8h35.5a1,1,0,1,0,0-1.93H2.11V47.18H52.87ZM66.69,31h1.93a2.31,2.31,0,0,1,1.65.76l6.8,7.44H66.69Zm-3.86,0h1.93v8.2H62.83Zm-8,0h6.1v8.2H54.8ZM66.41,65.51a4.66,4.66,0,1,1,4.66-4.66A4.66,4.66,0,0,1,66.41,65.51ZM78.25,48.46H75.52V45.41h2.73Zm0-5h-3a1.7,1.7,0,0,0-1.67,1.66v3.57a1.72,1.72,0,0,0,1.67,1.68h3v7.25a2.2,2.2,0,0,1-2.17,2.23H72.92a6.59,6.59,0,0,0-13,0H54.8V41.07h2.41v5.07a1,1,0,0,0,1.93,0V41.07H78.25Z"/></svg>