<svg id="Layer_1" data-name="Layer 1" xmlns="http://www.w3.org/2000/svg" viewBox="0 0 200 80"><defs><style>.cls-1{fill:#07ad76;}</style></defs><path class="cls-1" d="M18.37,51.67l4.73,6.95.26-1.35c3.32,4.88,6.68,9.82,10,14.7l-.26,1.35,16-10.91-1.35-.26L27.84,32.86l-1.78,1.22.52-3-5.78-8.5a1.74,1.74,0,0,1-2.42-.46L6.84,29.93a1.71,1.71,0,0,1-.46,2.41l12.24,18Zm8-10.64L40.18,61.36l-4.76,3.25L24.86,49.1ZM13.55,32.5l4.71-3.2,3.33,4.88-1.47,8Z"/><path class="cls-1" d="M49.52,62.33l17-7L63.9,48.93l-.53,1.27-9.82,4.07L36.43,12.93l-3.85,1.59a1.7,1.7,0,0,1-.87,2.24q9.16,22.16,18.34,44.3Z"/><path class="cls-1" d="M86.75,51.09l19.38-.53-1-1-.63-23.19-5.68,6.06.34,12.36L93.4,45,92.34,6.17,98,6l.16,5.9,5.74-6.13-.11-4.1A1.72,1.72,0,0,1,102,0L88,.38a1.7,1.7,0,0,1-1.62,1.78q.64,24,1.3,47.93Z"/><path class="cls-1" d="M113.72,50.64l3.52-23.43,6.57-4.91-4.39,29.2-1.11.81,7.7,1.16-.82-1.11,5.27-35-2.4-.36,2.76-2,1.5-10a1.73,1.73,0,0,1-1.46-2l-4.12-.62L125,14l-6.49,4.86,2.62-17.39L117.05.9a1.71,1.71,0,0,1-2,1.46c-1.08,7.15-2.16,14.36-3.24,21.51l-1.11.81L109.48,33l1.11-.82-2.65,17.59-1.1.82,7.69,1.16Z"/><path class="cls-1" d="M127.86,53l-1.23.6L134,56.17l-.61-1.24,7.71-22.41,4.27-2.13L148,22.48l-4.17,2.09,3.8-11L153,15.39,151.1,21l7.53-3.73L160,13.37a1.73,1.73,0,0,1-1.08-2.21l-13.2-4.54a1.72,1.72,0,0,1-2.21,1.07c-2.35,6.84-4.73,13.74-7.08,20.57l-1.24.6-2.71,7.89,1.21-.54C131.73,41.79,129.81,47.38,127.86,53Z"/><path class="cls-1" d="M138.81,57.42l16.5,8.16c1-2,2-4.11,3.05-6.16l-1.3.44-9.53-4.72L167.37,15l-3.73-1.85a1.71,1.71,0,0,1-2.27.82q-10.63,21.48-21.26,43Z"/><path class="cls-1" d="M156.77,65.82l-1.35.25,6.34,4.39-.24-1.35,16.91-24.29,8.07-1.52L193.62,33a1.73,1.73,0,0,1-.44-2.42l-3.43-2.37L183.08,38l-4,.68-.66-3.93L185.13,25l-3.43-2.37a1.73,1.73,0,0,1-2.42.44l-7.12,10.28,1.43,8.18Z"/><path class="cls-1" d="M58.09,76.21l1.39-.87-7.63-6.06-1.91,1.19L52,80l1.4-.87-.48-2,3.57-2.23ZM52.65,76l-1-4.93,4,3.11Z"/><rect class="cls-1" x="58.7" y="65.87" width="1.56" height="9.18" transform="translate(-24.2 31.73) rotate(-24.99)"/><path class="cls-1" d="M69.76,71.33l1.67-.6-3.38-2.67a2.77,2.77,0,0,0,1.14-3.18c-.57-1.61-2.33-2.26-4.23-1.59l-4,1.42,3.09,8.65,1.46-.52L64.38,69.6l2.33-.83ZM64,68.43l-1.08-3,2.34-.84c1.14-.4,2.16-.13,2.51.84s-.3,1.79-1.43,2.19Z"/><path class="cls-1" d="M76.36,68.51c-1.44.35-2.65-.24-2.93-1.38L72,67.48c.45,1.86,2.39,2.83,4.62,2.29s3.25-2.11,2.85-3.79c-.85-3.48-6.24-.46-6.76-2.59-.19-.79.45-1.57,1.66-1.87A2,2,0,0,1,77,62.8l1.4-.34c-.45-1.77-2.27-2.69-4.35-2.18s-3.19,2-2.79,3.69c.84,3.45,6.23.41,6.76,2.6C78.21,67.37,77.63,68.2,76.36,68.51Z"/><polygon class="cls-1" points="99.2 57.43 93.2 57.66 93.55 66.83 95.1 66.77 94.97 63.22 98.64 63.08 98.59 61.85 94.92 61.99 94.81 58.94 99.25 58.78 99.2 57.43"/><polygon class="cls-1" points="104.6 66.79 104.95 58.96 107.88 59.09 107.94 57.75 100.52 57.42 100.46 58.75 103.4 58.89 103.05 66.72 104.6 66.79"/><path class="cls-1" d="M118.57,60.23A3,3,0,0,1,121,62.44l1.48-.14a4.38,4.38,0,0,0-3.69-3.39,4.91,4.91,0,1,0-1.74,9.67c3,.54,5.39-1.36,5.7-4.52L118,63.2l-.22,1.2,3.27.6a3.13,3.13,0,0,1-3.71,2.26,3.57,3.57,0,0,1,1.23-7Z"/><polygon class="cls-1" points="130.26 67.2 130.59 66.05 126.42 64.87 127.11 62.43 131.78 63.76 132.14 62.49 126.03 60.75 123.52 69.58 129.75 71.35 130.12 70.08 125.33 68.72 126.09 66.01 130.26 67.2"/><path class="cls-1" d="M138.74,74.86l.4-9.74-2.09-.84-6.47,7.28,1.52.62,1.33-1.56,3.9,1.57-.12,2Zm-4.52-5.17L137.59,66l-.17,5Z"/><path class="cls-1" d="M149.61,74c.89-1.47.28-3.24-1.45-4.28l-3.62-2.18-4.73,7.87,1.33.8,1.77-3L145,74.53l0,4,1.52.92-.07-4.31A2.76,2.76,0,0,0,149.61,74Zm-3.92-.52-2.13-1.28,1.65-2.76,2.14,1.29c1,.62,1.47,1.58.93,2.47A1.82,1.82,0,0,1,145.69,73.47Z"/><path class="cls-1" d="M79.73,62.7A6.31,6.31,0,1,0,86,56.4,6.31,6.31,0,0,0,79.73,62.7Zm10-1.31-1,.22.22,1.09,1.05-.21a3.9,3.9,0,0,1-2.59,3.89l-.21-1L86,65.55l.21,1A3.9,3.9,0,0,1,82.36,64l1-.21-.22-1.09-1,.21A3.9,3.9,0,0,1,84.73,59l.21,1L86,59.86l-.21-1A3.91,3.91,0,0,1,89.71,61.39Z"/><path class="cls-1" d="M83.93,62.7A2.11,2.11,0,1,0,86,60.6,2.1,2.1,0,0,0,83.93,62.7Z"/><path class="cls-1" d="M61.73,29.47l1.71,8.16.77-1.08L67.85,54l-.76,1.15,7.62-1.59-1.15-.76L68.71,29.57l4.45-6.89,6,28.9-.75,1.16,7.62-1.6-1.15-.75L75.11,3.46a1.71,1.71,0,0,1-2-1.34L59.32,5A1.72,1.72,0,0,1,58,7c1.48,7.07,3,14.21,4.45,21.29ZM70.18,8.75l1.21,5.78L67,21.34,64.61,9.91Z"/></svg>