<svg id="Layer_1" data-name="Layer 1" xmlns="http://www.w3.org/2000/svg" viewBox="0 0 80 80"><defs><style>.cls-1{fill:#07ad76;}</style></defs><path class="cls-1" d="M37.43,23.64a2.25,2.25,0,1,0-2.25-2.25h0A2.25,2.25,0,0,0,37.43,23.64Zm0-3.05h0a.79.79,0,0,1,.8.79.8.8,0,0,1-.8.8.8.8,0,0,1,0-1.6Z"/><path class="cls-1" d="M42.57,24.28a2.25,2.25,0,1,0,2.26,2.25,2.25,2.25,0,0,0-2.26-2.25Zm.8,2.25h0a.8.8,0,0,1-.8.8.8.8,0,0,1,0-1.6h0A.8.8,0,0,1,43.37,26.53Z"/><path class="cls-1" d="M36.16,27.8a.72.72,0,0,0,1,0h0l6.66-6.65a.73.73,0,0,0-1-1h0l-6.65,6.65A.72.72,0,0,0,36.16,27.8Z"/><path class="cls-1" d="M40,33.39A9.43,9.43,0,1,0,30.58,24,9.43,9.43,0,0,0,40,33.39ZM32,24a8,8,0,1,1,8,8,8,8,0,0,1-8-8Z"/><path class="cls-1" d="M56.88,24a.72.72,0,0,0,.73.72h3.47a.73.73,0,1,0,0-1.45H57.61A.72.72,0,0,0,56.88,24Z"/><path class="cls-1" d="M56.74,20.38l3.47-2.6a.73.73,0,1,0-.87-1.16h0l-3.47,2.6a.73.73,0,0,0,.87,1.16Z"/><path class="cls-1" d="M59.34,31.3a.72.72,0,0,0,1-.14.73.73,0,0,0-.14-1l-3.48-2.6a.73.73,0,0,0-.87,1.16h0Z"/><path class="cls-1" d="M18.93,24.69H22.4a.73.73,0,1,0,0-1.45H18.93a.73.73,0,1,0,0,1.45Z"/><path class="cls-1" d="M23.26,27.54h0l-3.47,2.6a.73.73,0,1,0,.87,1.16l3.48-2.6a.73.73,0,0,0-.88-1.16Z"/><polygon class="cls-1" points="24.14 19.22 24.14 19.22 24.14 19.22 24.14 19.22"/><path class="cls-1" d="M23.26,20.38a.73.73,0,0,0,.87-1.16l-3.47-2.6a.73.73,0,1,0-.87,1.16Z"/><path class="cls-1" d="M63.34,43.22l-3.84-7.3a.57.57,0,0,0-.43-.35l-8.93-3.06.63-.33a3.15,3.15,0,0,0,1.73-3l-.07-1.35a1.73,1.73,0,0,1,.28-1l.73-1.11a3.15,3.15,0,0,0,0-3.48l-.73-1.11a1.71,1.71,0,0,1-.28-1l.07-1.35a3.15,3.15,0,0,0-1.73-3l-1.19-.61a1.65,1.65,0,0,1-.75-.75l-.6-1.19a3.17,3.17,0,0,0-3-1.73l-1.35.07a1.72,1.72,0,0,1-1-.27l-1.11-.74a3.18,3.18,0,0,0-3.48,0l-1.11.74a1.68,1.68,0,0,1-1,.27l-1.35-.07a3.16,3.16,0,0,0-3,1.73l-.6,1.19a1.67,1.67,0,0,1-.76.75l-1.19.61a3.15,3.15,0,0,0-1.73,3l.08,1.35a1.8,1.8,0,0,1-.28,1l-.74,1.11a3.18,3.18,0,0,0,0,3.48l.74,1.11a1.8,1.8,0,0,1,.28,1l-.08,1.35a3.15,3.15,0,0,0,1.73,3l.69.35-9,3a.61.61,0,0,0-.43.35l-3.85,7.3a.73.73,0,0,0,.32,1l3.84,2V60.33a.71.71,0,0,0,.39.65l18.49,9A.88.88,0,0,0,40,70a.67.67,0,0,0,.31-.07L58.8,61a.72.72,0,0,0,.4-.65V46.24l3.84-2A.72.72,0,0,0,63.34,43.22ZM29.89,30.88A1.67,1.67,0,0,1,29,29.27L29,27.92A3.09,3.09,0,0,0,28.51,26l-.73-1.11a1.73,1.73,0,0,1,0-1.88l.73-1.11A3.07,3.07,0,0,0,29,20L29,18.65A1.7,1.7,0,0,1,29.89,17l1.19-.6a3.21,3.21,0,0,0,1.4-1.4l.6-1.19a1.72,1.72,0,0,1,1.61-.94L36,13A3.14,3.14,0,0,0,38,12.47l1.12-.73a1.68,1.68,0,0,1,1.87,0l1.11.73A3.25,3.25,0,0,0,44,13l1.35-.08a1.7,1.7,0,0,1,1.61.94L47.53,15a3.19,3.19,0,0,0,1.39,1.4l1.2.6a1.7,1.7,0,0,1,.93,1.61L51,20a3.21,3.21,0,0,0,.52,1.91L52.22,23a1.69,1.69,0,0,1,0,1.88L51.49,26A3.21,3.21,0,0,0,51,27.92l.08,1.35a1.7,1.7,0,0,1-.93,1.61l-1.2.61a3.12,3.12,0,0,0-1.39,1.39l-.61,1.19a1.7,1.7,0,0,1-1.61.94L44,34.93a3.25,3.25,0,0,0-1.91.52l-1.11.73a1.68,1.68,0,0,1-1.87,0L38,35.45a3.14,3.14,0,0,0-1.74-.52H36L34.69,35a1.72,1.72,0,0,1-1.61-.94l-.6-1.19a3.14,3.14,0,0,0-1.4-1.39Zm9.38,37.23-17-8.24V47l13.48,7.18a.63.63,0,0,0,.33.09.85.85,0,0,0,.22,0,.74.74,0,0,0,.43-.37l2.54-5.1ZM40,44.87,29.27,39.51a.67.67,0,0,0-.93.25.72.72,0,0,0,.2,1l.08,0L39,46l-3.27,6.54L18.27,43.26l3.17-6,2.79,1.4a.73.73,0,0,0,.66-1.31L23,36.39l8.2-2.76.56,1.1a3.15,3.15,0,0,0,3,1.73l1.35-.07a1.69,1.69,0,0,1,1,.28l1.11.73a3.15,3.15,0,0,0,3.48,0l1.11-.73a1.73,1.73,0,0,1,1-.28l1.35.07a3.15,3.15,0,0,0,3-1.73l.58-1.14L57,36.39Zm17.74,15-17,8.24V48.77l2.55,5.1a.73.73,0,0,0,.65.41.63.63,0,0,0,.33-.09L57.74,47ZM44.25,52.55,41,46l17.58-8.78,3.17,6Z"/><path class="cls-1" d="M24.09,49.72a.73.73,0,0,0-.73.73v.65a.73.73,0,1,0,1.46,0v-.65A.73.73,0,0,0,24.09,49.72Z"/><path class="cls-1" d="M24.09,52.71a.73.73,0,0,0-.73.73v4.93a.73.73,0,0,0,1.46,0V53.44A.73.73,0,0,0,24.09,52.71Z"/></svg>