<svg id="Layer_1" data-name="Layer 1" xmlns="http://www.w3.org/2000/svg" viewBox="0 0 80 80"><defs><style>.cls-1{fill:#07ad76;}</style></defs><path class="cls-1" d="M63.14,40.45V33.12a23.14,23.14,0,0,0-46.28,0v7.33A6.22,6.22,0,0,0,14.59,47l2.62,10a6.23,6.23,0,0,0,6,4.65,6.45,6.45,0,0,0,1.58-.2l4.52-1.18a.75.75,0,0,0,.53-.9h0l-5.4-20.66a.74.74,0,0,0-.9-.53l-1.52.4v-5.5a18,18,0,0,1,35.94,0v5.5l-1.52-.4a.73.73,0,0,0-.9.53l-5.4,20.66a.73.73,0,0,0,.08.56.76.76,0,0,0,.46.34l3.71,1V63a3,3,0,0,1-3,3H44.92V64.66a1.22,1.22,0,0,0-1.27-1.18h-7.3a1.22,1.22,0,0,0-1.27,1.18v4A1.31,1.31,0,0,0,36.35,70h7.3a1.32,1.32,0,0,0,1.27-1.29V67.42h6.49A4.48,4.48,0,0,0,55.88,63V61.62a5.58,5.58,0,0,0,.91.07,6.23,6.23,0,0,0,6-4.65l2.62-10A6.22,6.22,0,0,0,63.14,40.45ZM43.45,68.52h-6.9V65h6.9ZM23.21,39.84l5,19.23-2.67.7-2.11-8.05a.74.74,0,0,0-1.43.35v0l2.1,8a4.75,4.75,0,0,1-5.49-3.46L16,46.62a4.74,4.74,0,0,1,3.09-5.7l1.63,6.25a.73.73,0,0,0,.71.55h0a.74.74,0,0,0,.74-.73,1.11,1.11,0,0,0,0-.19l-1.64-6.27ZM40,13.68A19.47,19.47,0,0,0,20.55,33.12V39L19,39.4a6.2,6.2,0,0,0-.69.23V33.12a21.66,21.66,0,0,1,43.32,0v6.51A6.2,6.2,0,0,0,61,39.4L59.44,39V33.12A19.46,19.46,0,0,0,40,13.68ZM54.44,59.76l-2.67-.69,5-19.23,2.67.69ZM64,46.62,61.35,56.67a4.74,4.74,0,0,1-5.48,3.46l5-19.21A4.74,4.74,0,0,1,64,46.62Z"/></svg>